<svg xmlns="http://www.w3.org/2000/svg" width="187.061" height="57.612" viewBox="0 0 187.061 57.612">
  <g id="Layer_1" data-name="Layer 1" transform="translate(276 0)">
    <g id="Group_4" data-name="Group 4" transform="translate(-276 0)">
      <g id="Group_2" data-name="Group 2" transform="translate(28.642 51.376)">
        <path id="Path_2" data-name="Path 2" d="M92.424,164.039l-.223-.051c-.92-.207-1.344-.455-1.344-1,0-.672.573-1.035,1.35-1.035a2.412,2.412,0,0,1,1.771.729l.207-.564a2.693,2.693,0,0,0-2.032-.806c-1.185,0-2.1.605-2.1,1.758,0,.879.548,1.319,1.93,1.64l.217.048c.943.217,1.341.513,1.341,1.051,0,.688-.631,1.1-1.459,1.1a2.662,2.662,0,0,1-1.94-.8l-.217.564a2.987,2.987,0,0,0,2.194.869c1.242,0,2.214-.647,2.214-1.806,0-.885-.548-1.392-1.924-1.7Z" transform="translate(-89.93 -161.31)" fill="#999"/>
        <path id="Path_3" data-name="Path 3" d="M110.556,164.911h2.889v-.621h-2.889v-2.013h3.14v-.637H109.76v6.032h4.016v-.64h-3.22Z" transform="translate(-103.444 -161.535)" fill="#999"/>
        <path id="Path_4" data-name="Path 4" d="M132.594,166.354l-3.529-4.714h-.745v6.032h.72v-4.79l3.586,4.79h.688V161.64h-.72Z" transform="translate(-116.093 -161.535)" fill="#999"/>
        <rect id="Rectangle_5" data-name="Rectangle 5" width="0.796" height="6.032" transform="translate(19.438 0.105)" fill="#999"/>
        <path id="Path_5" data-name="Path 5" d="M162.6,161.32a3.116,3.116,0,1,0,3.1,3.118A2.991,2.991,0,0,0,162.6,161.32Zm0,5.593a2.489,2.489,0,1,1,2.255-2.478A2.287,2.287,0,0,1,162.6,166.913Z" transform="translate(-137.342 -161.317)" fill="#999"/>
        <path id="Path_6" data-name="Path 6" d="M189.408,163.379c0-1.092-.771-1.739-2.137-1.739H185v6.032h.8V165.1h1.573l1.268,2.57h.863l-1.357-2.685a1.658,1.658,0,0,0,1.268-1.608Zm-2.163,1.108H185.8v-2.22h1.417c.92,0,1.4.389,1.4,1.108s-.532,1.112-1.366,1.112Z" transform="translate(-154.721 -161.535)" fill="#999"/>
        <path id="Path_7" data-name="Path 7" d="M217.768,163.379c0-1.092-.771-1.739-2.137-1.739H213.36v6.032h.8V165.1h1.573l1.268,2.57h.863l-1.357-2.685a1.658,1.658,0,0,0,1.268-1.608Zm-2.163,1.108h-1.449v-2.22h1.417c.92,0,1.4.389,1.4,1.108s-.532,1.112-1.366,1.112Z" transform="translate(-174.048 -161.535)" fill="#999"/>
        <path id="Path_8" data-name="Path 8" d="M234.2,164.911h2.889v-.621H234.2v-2.013h3.137v-.637H233.4v6.032h4.016v-.64H234.2Z" transform="translate(-187.706 -161.535)" fill="#999"/>
        <path id="Path_9" data-name="Path 9" d="M253.361,164.039l-.226-.051c-.917-.207-1.341-.455-1.341-1,0-.672.573-1.035,1.35-1.035a2.413,2.413,0,0,1,1.771.729l.207-.564a2.69,2.69,0,0,0-2.029-.806c-1.185,0-2.1.605-2.1,1.758,0,.879.548,1.319,1.93,1.64l.217.048c.943.217,1.341.513,1.341,1.051,0,.688-.631,1.1-1.459,1.1a2.662,2.662,0,0,1-1.94-.8l-.217.564a2.99,2.99,0,0,0,2.2.869c1.242,0,2.21-.647,2.21-1.806,0-.885-.548-1.392-1.924-1.7Z" transform="translate(-199.612 -161.31)" fill="#999"/>
        <rect id="Rectangle_6" data-name="Rectangle 6" width="0.796" height="6.032" transform="translate(57.571 0.105)" fill="#999"/>
        <path id="Path_10" data-name="Path 10" d="M282.313,161.64H280.15v6.032h2.163a3.023,3.023,0,1,0,0-6.032Zm-.022,5.392h-1.344v-4.755h1.344a2.378,2.378,0,1,1,0,4.755Z" transform="translate(-219.566 -161.535)" fill="#999"/>
        <path id="Path_11" data-name="Path 11" d="M303.923,164.911h2.9v-.621h-2.9v-2.013h3.143v-.637H303.13v6.032h4.019v-.64h-3.226Z" transform="translate(-235.227 -161.535)" fill="#999"/>
        <path id="Path_12" data-name="Path 12" d="M325.964,166.354l-3.529-4.714h-.745v6.032h.72v-4.79l3.589,4.79h.688V161.64h-.723Z" transform="translate(-247.876 -161.535)" fill="#999"/>
        <path id="Path_13" data-name="Path 13" d="M346.605,166.839a2.331,2.331,0,0,1-2.36-2.487,2.251,2.251,0,0,1,2.236-2.411,2.137,2.137,0,0,1,2.038,1.385l.694-.207a2.874,2.874,0,0,0-2.768-1.8,3.118,3.118,0,0,0,.01,6.233,3.1,3.1,0,0,0,2.851-1.723l-.433-.29a2.584,2.584,0,0,1-2.271,1.3Z" transform="translate(-262.692 -161.317)" fill="#999"/>
        <path id="Path_14" data-name="Path 14" d="M368.1,164.911h2.889v-.621H368.1v-2.013h3.14v-.637H367.3v6.032h4.019v-.64H368.1Z" transform="translate(-278.96 -161.535)" fill="#999"/>
        <path id="Path_15" data-name="Path 15" d="M398.176,164.139h-.538a3.3,3.3,0,0,1-.506,1.806l-1.631-1.717c.777-.331,1.459-.71,1.459-1.506a1.588,1.588,0,0,0-3.15-.025,2.18,2.18,0,0,0,.662,1.385c-.713.315-1.392.755-1.392,1.7a1.862,1.862,0,0,0,2.1,1.771,3.014,3.014,0,0,0,1.93-.688l.564.589h.895l-1-1.051a3.13,3.13,0,0,0,.612-2.261Zm-2.793-2.312a.875.875,0,0,1,.92.879c0,.557-.465.87-1.2,1.134a1.614,1.614,0,0,1-.612-1.15.856.856,0,0,1,.9-.863Zm-.108,5.179a1.3,1.3,0,0,1-1.449-1.293c0-.672.446-.962,1.026-1.22l1.847,1.949a2.132,2.132,0,0,1-1.427.564Z" transform="translate(-296.529 -161.317)" fill="#999"/>
        <path id="Path_16" data-name="Path 16" d="M425.565,166.839a2.331,2.331,0,0,1-2.36-2.487,2.251,2.251,0,0,1,2.236-2.411,2.14,2.14,0,0,1,2.038,1.385l.694-.207a2.874,2.874,0,0,0-2.768-1.8,3.118,3.118,0,0,0,.01,6.233,3.094,3.094,0,0,0,2.85-1.723l-.433-.29a2.585,2.585,0,0,1-2.271,1.3Z" transform="translate(-316.504 -161.317)" fill="#999"/>
        <path id="Path_17" data-name="Path 17" d="M447.056,161.64h-.8v6.032h3.446v-.64h-2.65Z" transform="translate(-332.771 -161.535)" fill="#999"/>
        <path id="Path_18" data-name="Path 18" d="M465.339,165.5a1.577,1.577,0,1,1-3.153,0v-3.87h-.8v3.822a2.344,2.344,0,0,0,4.688,0V161.63h-.736v3.87Z" transform="translate(-343.083 -161.528)" fill="#999"/>
        <path id="Path_19" data-name="Path 19" d="M486.186,164.455a1.4,1.4,0,0,0,1.035-1.315c0-1.035-.787-1.5-2.023-1.5H482.87v6.032h2.472c1.309,0,2.147-.589,2.147-1.634A1.53,1.53,0,0,0,486.186,164.455Zm-2.516-2.2h1.5c.863,0,1.293.382,1.293,1.029a1.105,1.105,0,0,1-1.22,1.01h-1.573Zm1.647,4.806h-1.65v-2.22h1.618c.895,0,1.408.455,1.408,1.143C486.692,166.628,486.2,167.058,485.316,167.058Z" transform="translate(-357.721 -161.535)" fill="#999"/>
      </g>
      <g id="Group_3" data-name="Group 3" transform="translate(0 0)">
        <path id="Path_20" data-name="Path 20" d="M152.109,76.455a13.631,13.631,0,0,1-.557-4.548V59.25H144l-.127.172a2.659,2.659,0,0,1,1.545,1.866,16.115,16.115,0,0,1,.471,4.526V76.672a4.991,4.991,0,0,1-1.395.793,4.25,4.25,0,0,1-1.478.277,2.6,2.6,0,0,1-2.166-1.006,4.2,4.2,0,0,1-.793-2.682V59.25h-7.937l-.131.172a2.77,2.77,0,0,1,1.825,1.825,13.977,13.977,0,0,1,.538,4.526v8.5a5.971,5.971,0,0,0,1.631,4.312,5.579,5.579,0,0,0,4.2,1.694,6.82,6.82,0,0,0,5.749-3.045V80.15l.131.131,7.768-1.8.127-.172a2.824,2.824,0,0,1-1.844-1.844Z" transform="translate(-89.952 -40.379)" fill="#0033a1"/>
        <path id="Path_21" data-name="Path 21" d="M212.509,78.164a2.71,2.71,0,0,1-1.8-1.825,14.482,14.482,0,0,1-.516-4.526V57.481l-.127-.131-7.9,2.019-.127.172a2.933,2.933,0,0,1,1.885,1.825,12.541,12.541,0,0,1,.6,4.526v5.921a14.585,14.585,0,0,1-.513,4.526,2.71,2.71,0,0,1-1.8,1.825l.131.172h10.039Z" transform="translate(-137.692 -39.084)" fill="#0033a1"/>
        <path id="Path_22" data-name="Path 22" d="M245.98,60.032a4.15,4.15,0,0,1,1.436-.277,2.632,2.632,0,0,1,2.207,1.029,4.285,4.285,0,0,1,.793,2.7v8.236a20.263,20.263,0,0,1-.363,4.526,2.477,2.477,0,0,1-1.264,1.825l.131.172h9.354l.131-.172a2.71,2.71,0,0,1-1.8-1.825,14.5,14.5,0,0,1-.513-4.526v-8.5a6.272,6.272,0,0,0-.793-3.261,5.44,5.44,0,0,0-2.124-2.038,6.126,6.126,0,0,0-2.917-.707,6.974,6.974,0,0,0-3.2.774,6.8,6.8,0,0,0-2.554,2.274V57.392l-.131-.131-7.851,2.019-.131.172a2.9,2.9,0,0,1,1.911,1.825,13.011,13.011,0,0,1,.58,4.526v5.921a14.585,14.585,0,0,1-.513,4.526,2.7,2.7,0,0,1-1.8,1.825l.131.172h9.354l.131-.172a2.564,2.564,0,0,1-1.245-1.825,19.088,19.088,0,0,1-.385-4.526v-10.9a5.7,5.7,0,0,1,1.436-.793Z" transform="translate(-161.101 -38.996)" fill="#0033a1"/>
        <path id="Path_23" data-name="Path 23" d="M307,66.968a5.263,5.263,0,0,0,3.605,1.373,6.29,6.29,0,0,0,2.4-.471,5.622,5.622,0,0,0,2.061-1.459,5.775,5.775,0,0,0,1.29-2.487l-.217-.086a5.039,5.039,0,0,1-1.331,1.608,2.529,2.529,0,0,1-1.5.494,1.927,1.927,0,0,1-1.586-.752,3.315,3.315,0,0,1-.6-2.124V47.96h4.5v-.643h-4.5V41.74l-.385.131a7.439,7.439,0,0,1-2.79,4.118,8.909,8.909,0,0,1-5.15,1.331v.643h2.663V62.681a5.446,5.446,0,0,0,1.545,4.29Z" transform="translate(-206.36 -28.446)" fill="#0033a1"/>
        <path id="Path_24" data-name="Path 24" d="M367.316,76.014a3.589,3.589,0,0,1-.9.688,1.986,1.986,0,0,1-.9.213,1.473,1.473,0,0,1-1.182-.535,2.382,2.382,0,0,1-.449-1.567V64.087a6.95,6.95,0,0,0-.987-3.841,6.13,6.13,0,0,0-2.6-2.274,8.179,8.179,0,0,0-3.5-.752,8.41,8.41,0,0,0-3.112.58,6.681,6.681,0,0,0-4.1,4.615l.217.131a5.543,5.543,0,0,1,2.147-2.446,5.1,5.1,0,0,1,2.532-.729,3.639,3.639,0,0,1,2.682,1.051,3.684,3.684,0,0,1,1.051,2.723v1.115a2.018,2.018,0,0,1-.879,1.631A7.1,7.1,0,0,1,355.133,67c-.717.229-1.516.487-2.4.774a13.334,13.334,0,0,0-2.554,1.137,5.954,5.954,0,0,0-1.994,1.866,5.173,5.173,0,0,0-.771,2.917,4.833,4.833,0,0,0,1.564,3.774,5.467,5.467,0,0,0,3.8,1.417,6.674,6.674,0,0,0,3.067-.729,6.157,6.157,0,0,0,2.424-2.315h.086a2.921,2.921,0,0,0,1.481,2.252,5.929,5.929,0,0,0,5.813.064,4.865,4.865,0,0,0,1.844-2.016l-.172-.131Zm-9.1-.943a3.307,3.307,0,0,1-1.2,1.287,2.637,2.637,0,0,1-1.287.385,2,2,0,0,1-1.758-.987,5.6,5.6,0,0,1-.643-3,7.267,7.267,0,0,1,.643-3.175,5.219,5.219,0,0,1,2.274-2.233,7.156,7.156,0,0,1,.857-.538c.344-.185.713-.408,1.115-.666v8.924Z" transform="translate(-236.762 -38.996)" fill="#0033a1"/>
        <path id="Path_25" data-name="Path 25" d="M426.992,73.145l-.217-.131a11.273,11.273,0,0,1-2.3,3.841,6.688,6.688,0,0,1-3.239,1.866,12.082,12.082,0,0,1-4.376.172l10.727-19.31-.086-.344H412.443l-.987,5.577.213.131a9.494,9.494,0,0,1,2.554-3.628,6.645,6.645,0,0,1,3.22-1.4,14.343,14.343,0,0,1,3.841,0L410.3,79.362l.086.258h15.405l1.2-6.478Z" transform="translate(-279.622 -40.372)" fill="#0033a1"/>
        <path id="Path_26" data-name="Path 26" d="M487.019,76.455a13.629,13.629,0,0,1-.557-4.548V59.25H478.91l-.127.172a2.659,2.659,0,0,1,1.545,1.866,16.109,16.109,0,0,1,.471,4.526V76.672a4.992,4.992,0,0,1-1.395.793,4.25,4.25,0,0,1-1.478.277,2.6,2.6,0,0,1-2.166-1.006,4.2,4.2,0,0,1-.793-2.682V59.25h-7.937l-.131.172a2.77,2.77,0,0,1,1.825,1.825,13.975,13.975,0,0,1,.538,4.526v8.5a5.971,5.971,0,0,0,1.631,4.312,5.579,5.579,0,0,0,4.2,1.694,6.82,6.82,0,0,0,5.749-3.045V80.15l.131.131,7.768-1.8.127-.172a2.824,2.824,0,0,1-1.844-1.844Z" transform="translate(-318.196 -40.379)" fill="#0033a1"/>
        <path id="Path_27" data-name="Path 27" d="M548.814,57.445a6.3,6.3,0,0,0-2.79,2.124,7.9,7.9,0,0,0-1.436,3.475H544.5V57.3l-.131-.131-7.851,2.019-.13.172a2.9,2.9,0,0,1,1.911,1.825,13.012,13.012,0,0,1,.58,4.526v5.921a14.584,14.584,0,0,1-.513,4.526,2.7,2.7,0,0,1-1.8,1.825l.131.172h10.039l.131-.172a2.763,2.763,0,0,1-1.781-1.825,14,14,0,0,1-.535-4.526V63.6a3.785,3.785,0,0,1,1.092-1.134,3.718,3.718,0,0,1,2.124-.621,5.856,5.856,0,0,1,1.93.344,5.25,5.25,0,0,1,1.889,1.2l.086-.086.943-6.007a6.175,6.175,0,0,0-3.8.15Z" transform="translate(-365.554 -38.896)" fill="#0033a1"/>
        <path id="Path_28" data-name="Path 28" d="M38.254,27.884a19.937,19.937,0,1,0-8.016,9.16L26.18,32.986a14.459,14.459,0,0,1-14.434-1.15l8.2-8.2L35.569,39.251h7.8l-3.589-3.573a7.057,7.057,0,0,1-1.529-7.794Zm-6.265.035-8.246-8.211a5.39,5.39,0,0,0-7.6-.006L7.886,27.9a14.446,14.446,0,1,1,24.1.022Z" transform="translate(0 0)" fill="#0033a1"/>
        <path id="Path_29" data-name="Path 29" d="M207.977,34.406a1.18,1.18,0,0,0,.3.083,1.037,1.037,0,0,0-.153.271.416.416,0,0,1-.08.124h.366a.816.816,0,0,1,1.4-.217.819.819,0,0,1,0,1.022.8.8,0,0,1-.468.283v-.647a.319.319,0,0,0-.318-.318h-1.755l.312.312h.28a.239.239,0,0,1,.233.175,1.123,1.123,0,0,0,.761.761.32.32,0,0,1,.048.022v-.331a.8.8,0,0,1-.306-.191.818.818,0,0,1-.226-.433h.656v.659h0v.51h0v.28l.312.312V36.6a.4.4,0,0,1,.248-.373,1.049,1.049,0,0,0,.271-.156,1.042,1.042,0,0,0,.083.3.463.463,0,0,1,.032.147l.258-.258a.817.817,0,1,1,1.427.115l-.459-.459a.317.317,0,0,0-.449,0l-.459.459h0l-.439.44h0l-.344.344h.439l.2-.2a.246.246,0,0,1,.29-.041,1.126,1.126,0,0,0,1.077,0,.15.15,0,0,1,.048-.019l-.236-.236a.817.817,0,0,1-.819-.067l.465-.465.465.465h0l.36.36h0l.2.2h.44l-.344-.344a.4.4,0,0,1-.089-.44,1.179,1.179,0,0,0,.083-.3,1.037,1.037,0,0,0,.271.153.415.415,0,0,1,.124.08v-.366a.779.779,0,0,1-.283-.185.815.815,0,0,1,1.089-1.21.8.8,0,0,1,.283.468h-.647a.319.319,0,0,0-.318.319v.647h0v.621h0v.487l.312-.312v-.28a.239.239,0,0,1,.175-.232,1.123,1.123,0,0,0,.761-.761.32.32,0,0,1,.022-.048h-.331a.8.8,0,0,1-.191.306.818.818,0,0,1-.433.226V35.32h1.449l.312-.312h-.487a.4.4,0,0,1-.373-.248,1.048,1.048,0,0,0-.156-.271,1.043,1.043,0,0,0,.3-.083.464.464,0,0,1,.146-.032l-.258-.258a.817.817,0,1,1,.115-1.427l-.459.459a.317.317,0,0,0,0,.449l.459.459h0l.44.44h0l.344.344V34.4l-.2-.2a.246.246,0,0,1-.041-.29,1.126,1.126,0,0,0,0-1.077.15.15,0,0,1-.019-.048l-.236.236a.817.817,0,0,1-.067.819l-.465-.465.465-.465h0l.36-.36h0l.2-.2v-.44l-.344.344a.4.4,0,0,1-.44.089,1.18,1.18,0,0,0-.3-.083,1.038,1.038,0,0,0,.153-.271.416.416,0,0,1,.08-.124h-.366a.816.816,0,0,1-1.4.217.819.819,0,0,1,0-1.022.8.8,0,0,1,.468-.283v.647a.319.319,0,0,0,.318.318h1.755l-.312-.312h-.28a.239.239,0,0,1-.233-.175,1.123,1.123,0,0,0-.761-.761.321.321,0,0,1-.048-.022v.331a.8.8,0,0,1,.306.191.817.817,0,0,1,.226.433h-.656v-.659h0v-.51h0v-.28l-.312-.312v.487a.4.4,0,0,1-.248.373,1.05,1.05,0,0,0-.271.156,1.044,1.044,0,0,0-.083-.3.465.465,0,0,1-.032-.147l-.258.258a.817.817,0,1,1-1.427-.115l.459.459a.317.317,0,0,0,.449,0l.459-.459h0l.44-.44h0l.344-.344h-.44l-.2.2a.246.246,0,0,1-.29.041,1.126,1.126,0,0,0-1.076,0,.151.151,0,0,1-.048.019l.236.236a.817.817,0,0,1,.819.067l-.465.465-.465-.465h0l-.36-.36h0l-.2-.2h-.44l.344.344a.4.4,0,0,1,.089.44,1.176,1.176,0,0,0-.083.3,1.038,1.038,0,0,0-.271-.153.415.415,0,0,1-.124-.08v.366a.816.816,0,0,1,.217,1.4.819.819,0,0,1-1.022,0,.8.8,0,0,1-.283-.468h.647a.319.319,0,0,0,.318-.318v-.647h0v-.621h0v-.487l-.312.312v.28a.239.239,0,0,1-.175.232,1.123,1.123,0,0,0-.761.761.319.319,0,0,1-.022.048h.331a.8.8,0,0,1,.191-.306.818.818,0,0,1,.433-.226v.659h-1.449l-.312.312h.487a.4.4,0,0,1,.373.248,1.048,1.048,0,0,0,.156.271,1.043,1.043,0,0,0-.3.083.464.464,0,0,1-.147.032l.258.258a.817.817,0,1,1-.115,1.427l.459-.459a.317.317,0,0,0,0-.449l-.459-.459h0l-.44-.44h0l-.344-.344v.44l.2.2a.246.246,0,0,1,.041.29,1.126,1.126,0,0,0,0,1.077.15.15,0,0,1,.019.048l.236-.236a.817.817,0,0,1,.067-.819l.465.465-.465.465h0l-.36.36h0l-.2.2v.44l.344-.344a.4.4,0,0,1,.44-.089Zm1.943-1.991a1.119,1.119,0,0,0,.369-.7,1.113,1.113,0,0,0,.618.233,1.133,1.133,0,0,0,.758-.233,1.109,1.109,0,0,0,.965.971,1.113,1.113,0,0,0-.232.618,1.133,1.133,0,0,0,.232.758,1.109,1.109,0,0,0-.971.965,1.114,1.114,0,0,0-.618-.232,1.133,1.133,0,0,0-.758.232,1.109,1.109,0,0,0-.965-.971,1.114,1.114,0,0,0,.232-.618,1.134,1.134,0,0,0-.232-.758A1.124,1.124,0,0,0,209.919,32.415Z" transform="translate(-141.201 -20.173)" fill="#0033a1"/>
      </g>
    </g>
  </g>
</svg>
